Coordinates
version=1
nRows=8
nColumns=40
inDegrees=yes

Units are S.I. units (second, meters, Newtons, ...)
Angles are in degrees.

endheader
time	pelvis_tilt	pelvis_list	pelvis_rotation	pelvis_tx	pelvis_ty	pelvis_tz	hip_flexion_r	hip_adduction_r	hip_rotation_r	knee_angle_r	knee_angle_r_beta	ankle_angle_r	subtalar_angle_r	mtp_angle_r	hip_flexion_l	hip_adduction_l	hip_rotation_l	knee_angle_l	knee_angle_l_beta	ankle_angle_l	subtalar_angle_l	mtp_angle_l	lumbar_extension	lumbar_bending	lumbar_rotation	arm_flex_r	arm_add_r	arm_rot_r	elbow_flex_r	pro_sup_r	wrist_flex_r	wrist_dev_r	arm_flex_l	arm_add_l	arm_rot_l	elbow_flex_l	pro_sup_l	wrist_flex_l	wrist_dev_l
     46.41250000	     -3.65313351	     -4.67746021	     -2.33749012	      0.80656740	      0.92156867	      0.49735506	     21.30059599	      2.24270338	    -11.02429408	     22.18755277	     22.18755277	      6.20774837	     -3.82462923	     -4.39196923	      9.21496216	    -10.40937873	     -4.96116157	     44.51456666	     44.51456666	     12.83319299	    -17.72761509	     -3.67474903	    -10.18318853	      8.60384428	      0.02276978	      8.79767431	    -13.72873212	     -6.06214428	     46.65019359	     45.29241886	      0.00000000	      0.00000000	     -3.67145854	    -12.67616226	     -9.32122402	     64.94902557	     46.81831457	      0.00000000	      0.00000000
     46.42628571	     -3.51276758	     -4.74923463	     -1.87620937	      0.80619372	      0.92260833	      0.49976311	     20.48184390	      2.28184795	    -11.82252258	     21.89932678	     21.89932678	      6.69034342	     -3.02097279	     -4.67062945	     11.60196771	    -10.73131978	     -3.91481619	     49.04942967	     49.04942967	     13.47102048	    -17.83736313	      2.67535580	    -10.31511796	      8.75042754	      0.44978776	      9.19455543	    -14.34645782	     -5.87214149	     47.76036692	     45.27259765	      0.00000000	      0.00000000	     -3.70992914	    -12.46504636	     -8.98691699	     64.49556877	     46.83016005	      0.00000000	      0.00000000
     46.44007143	     -3.38534166	     -4.93551707	     -1.45220221	      0.80562562	      0.92355917	      0.50238521	     19.64300450	      2.54138433	    -12.42530915	     21.50188517	     21.50188517	      7.07925626	     -2.57108314	     -4.79052831	     13.76184850	    -11.33768831	     -3.29093159	     52.67867188	     52.67867188	     12.03398796	    -18.36325853	      3.23463475	    -10.46126667	      8.95221370	      0.76759036	     10.03008542	    -14.75475156	     -5.98229331	     48.03809608	     45.27549002	      0.00000000	      0.00000000	     -3.99340438	    -12.29554635	     -8.88976449	     64.31539590	     46.82221577	      0.00000000	      0.00000000
     46.45385714	     -3.34668500	     -4.97299713	     -1.03861385	      0.80483652	      0.92444703	      0.50462958	     18.90026253	      2.50980020	    -13.50999040	     21.12081392	     21.12081392	      7.50593816	     -1.17516257	     -5.13436847	     16.19875428	    -11.51545213	     -2.38563880	     56.29415682	     56.29415682	     12.97491511	    -18.35419107	      9.69062654	    -10.49975375	      9.00687271	      1.01597209	     10.84592605	    -15.17987494	     -5.88313698	     48.36931303	     45.28775402	      0.00000000	      0.00000000	     -4.31557417	    -12.15283932	     -8.74597218	     63.84812434	     46.83807253	      0.00000000	      0.00000000
     46.46764286	     -3.26385921	     -5.09695756	     -0.65465079	      0.80395688	      0.92541930	      0.50700683	     18.05509719	      2.68991530	    -14.28918689	     20.59153686	     20.59153686	      7.84422271	     -0.25030663	     -5.21659925	     18.31565321	    -11.91738773	     -1.82377254	     58.94339429	     58.94339429	     12.53882893	    -18.55618602	     11.62233956	    -10.62220342	      9.10776494	      1.27918010	     11.77484016	    -15.55549094	     -5.88536185	     48.52560136	     45.30240914	      0.00000000	      0.00000000	     -4.72028499	    -12.01898267	     -8.68036075	     63.48042748	     46.84604261	      0.00000000	      0.00000000
     46.48142857	     -3.23334574	     -5.20875432	     -0.32085698	      0.80292247	      0.92628087	      0.50937248	     17.33421620	      2.93719286	    -14.71939685	     20.12446433	     20.12446433	      8.10462534	      0.11119623	     -5.22003984	     20.33515615	    -12.33699408	     -1.44248662	     60.88275852	     60.88275852	     11.86632928	    -18.75200624	     11.90953322	    -10.70256764	      9.18267774	      1.72574519	     12.60908488	    -16.00899289	     -5.97876946	     48.71287418	     45.30738151	      0.00000000	      0.00000000	     -5.11794659	    -11.85339024	     -8.62609735	     63.27126230	     46.83831154	      0.00000000	      0.00000000
     46.49521429	     -3.22313454	     -5.30462805	      0.02800067	      0.80186210	      0.92719195	      0.51160105	     16.54589653	      3.16306699	    -15.29650668	     19.49399469	     19.49399469	      8.36619949	      0.77614327	     -5.22459965	     22.26106765	    -12.68276822	     -1.07714063	     62.16609622	     62.16609622	     11.57206471	    -18.83299686	     12.46437216	    -10.77112358	      9.21642671	      2.03548864	     13.45389766	    -16.33414989	     -6.02592895	     48.86025422	     45.31224626	      0.00000000	      0.00000000	     -5.63985492	    -11.71013557	     -8.54411701	     62.85659190	     46.82537568	      0.00000000	      0.00000000
     46.50900000	     -3.11121375	     -5.28048826	      0.37642494	      0.80088625	      0.92835584	      0.51354678	     15.59441504	      3.20442830	    -16.12133380	     18.81156705	     18.81156705	      8.67852941	      2.03531621	     -5.26165027	     23.90437060	    -12.80643439	     -0.77860007	     62.76671734	     62.76671734	     11.92018957	    -18.84641756	     14.20938447	    -10.89388415	      9.13959991	      2.15445818	     14.61933804	    -16.54169120	     -5.87584875	     48.66139388	     45.32903366	      0.00000000	      0.00000000	     -6.11723213	    -11.59236290	     -8.46375726	     61.89924267	     46.81390931	      0.00000000	      0.00000000
